# Blender 4.4.3
# www.blender.org
mtllib rocket2.mtl
o Cylinder
v -8.000000 0.000000 -1.000000
v 8.000000 -0.000000 -1.000000
v -8.000000 -0.866025 -0.500000
v 8.000000 -0.866026 -0.500000
v -8.000000 -0.866025 0.500000
v 8.000000 -0.866026 0.500000
v -8.000000 0.000000 1.000000
v 8.000000 -0.000000 1.000000
v -8.000000 0.866026 0.500000
v 8.000000 0.866025 0.500000
v -8.000000 0.866026 -0.500000
v 8.000000 0.866025 -0.500000
v -9.755894 0.000000 -0.235491
v -9.755894 -0.203941 -0.117746
v -9.755894 -0.203941 0.117746
v -9.755894 0.000000 0.235491
v -9.755894 0.203942 0.117746
v -9.755894 0.203942 -0.117746
v -3.478534 0.000000 -1.000000
v -3.478534 -0.866025 -0.500000
v -3.478534 -0.866025 0.500000
v -3.478534 0.000000 1.000000
v -3.478534 0.866026 0.500000
v -3.478534 0.866026 -0.500000
v -2.714374 0.000000 -1.000000
v -2.714375 -0.866025 -0.500000
v -2.714375 -0.866025 0.500000
v -2.714375 0.000000 1.000000
v -2.714375 0.866026 0.500000
v -2.714375 0.866026 -0.500000
v 5.592444 -0.000000 -1.000000
v 5.592443 -0.866026 -0.500000
v 5.592443 -0.866026 0.500000
v 5.592443 -0.000000 1.000000
v 5.592443 0.866025 0.500000
v 5.592443 0.866025 -0.500000
v 5.279311 -0.866026 -0.500000
v 5.279311 -0.866026 0.500000
v 5.279311 -0.000000 1.000000
v 5.279311 0.866025 0.500000
v 5.279311 0.866025 -0.500000
v 5.279311 -0.000000 -1.000000
v 8.220825 -0.587368 -0.339117
v 8.220825 -0.000000 -0.678234
v 8.220825 -0.587368 0.339117
v 8.220825 -0.000000 0.678234
v 8.220825 0.587368 0.339117
v 8.220825 0.587368 -0.339117
v 8.220825 -0.691533 -0.399257
v 8.220825 -0.000000 -0.798514
v 8.220825 -0.691533 0.399257
v 8.220825 -0.000000 0.798514
v 8.220825 0.691533 0.399257
v 8.220825 0.691533 -0.399257
v 6.584346 -0.587368 -0.339117
v 6.584346 -0.000000 -0.678234
v 6.584346 -0.587368 0.339117
v 6.584346 -0.000000 0.678234
v 6.584346 0.587367 0.339117
v 6.584346 0.587367 -0.339117
v -3.368206 0.401379 0.771289
v -0.964812 1.113549 2.004804
v -3.368206 0.821920 0.528490
v -0.964812 1.534090 1.762005
v -0.824668 0.401379 0.771289
v -0.534105 1.113549 2.004804
v -0.824668 0.821920 0.528490
v -0.534105 1.534090 1.762005
v -3.368206 0.821920 -0.528487
v -0.964812 1.534090 -1.762002
v -3.368206 0.401379 -0.771286
v -0.964812 1.113549 -2.004801
v -0.824668 0.821920 -0.528487
v -0.534105 1.534090 -1.762002
v -0.824668 0.401379 -0.771286
v -0.534105 1.113549 -2.004801
v -3.368206 -0.401376 -0.771286
v -0.964812 -1.113546 -2.004801
v -3.368206 -0.821916 -0.528487
v -0.964812 -1.534086 -1.762002
v -0.824668 -0.401376 -0.771286
v -0.534105 -1.113546 -2.004801
v -0.824668 -0.821916 -0.528487
v -0.534105 -1.534086 -1.762002
v -3.368206 -0.821916 0.528490
v -0.964812 -1.534086 1.762005
v -3.368206 -0.401376 0.771289
v -0.964812 -1.113546 2.004804
v -0.824668 -0.821916 0.528490
v -0.534105 -1.534086 1.762005
v -0.824668 -0.401376 0.771289
v -0.534105 -1.113546 2.004804
v 5.662748 -0.821916 0.528490
v 7.778954 -1.534086 1.762005
v 5.662748 -0.401376 0.771289
v 7.778954 -1.113546 2.004804
v 7.919097 -0.821916 0.528490
v 8.209661 -1.534086 1.762005
v 7.919097 -0.401376 0.771289
v 8.209661 -1.113546 2.004804
v 5.662748 -0.401376 -0.771286
v 7.778954 -1.113546 -2.004801
v 5.662748 -0.821916 -0.528487
v 7.778954 -1.534086 -1.762002
v 7.919097 -0.401376 -0.771286
v 8.209661 -1.113546 -2.004801
v 7.919097 -0.821916 -0.528487
v 8.209661 -1.534086 -1.762002
v 5.662749 0.821920 -0.528487
v 7.778954 1.534090 -1.762002
v 5.662749 0.401379 -0.771286
v 7.778954 1.113549 -2.004801
v 7.919097 0.821920 -0.528487
v 8.209661 1.534090 -1.762002
v 7.919097 0.401379 -0.771286
v 8.209661 1.113550 -2.004801
v 5.662749 0.401379 0.771289
v 7.778954 1.113549 2.004804
v 5.662749 0.821920 0.528490
v 7.778954 1.534090 1.762005
v 7.919097 0.401379 0.771289
v 8.209661 1.113550 2.004804
v 7.919097 0.821920 0.528490
v 8.209661 1.534090 1.762005
vn -0.0000 -0.5000 -0.8660
vn -0.0000 -1.0000 -0.0000
vn -0.0000 -0.5000 0.8660
vn -0.0000 0.5000 0.8660
vn 0.6200 -0.7846 -0.0000
vn -0.0000 1.0000 -0.0000
vn -0.0000 0.5000 -0.8660
vn -0.3528 -0.9357 -0.0000
vn -1.0000 -0.0000 -0.0000
vn -0.3528 0.9357 -0.0000
vn -0.3528 -0.4678 -0.8103
vn -0.3528 -0.4678 0.8103
vn -0.3528 0.4678 -0.8103
vn -0.3528 0.4678 0.8103
vn 0.6200 0.7846 -0.0000
vn 0.6200 -0.3923 -0.6795
vn 0.6200 -0.3923 0.6795
vn 0.6200 0.3923 -0.6795
vn 0.6200 0.3923 0.6795
vn 1.0000 -0.0000 -0.0000
vn -0.5098 0.4301 0.7450
vn -0.0000 0.8660 -0.5000
vn 0.9798 -0.0999 -0.1731
vn -0.0000 -0.8660 0.5000
vn -0.5098 0.4301 -0.7450
vn -0.0000 -0.8660 -0.5000
vn 0.9798 -0.0999 0.1731
vn -0.0000 0.8660 0.5000
vn -0.5098 -0.4301 -0.7450
vn 0.9798 0.0999 0.1731
vn -0.5098 -0.4301 0.7450
vn 0.9798 0.0999 -0.1731
vn -0.5584 -0.4148 0.7184
vn -0.5584 -0.4148 -0.7184
vn -0.5584 0.4148 -0.7184
vn -0.5584 0.4148 0.7184
vt 1.000000 0.933486
vt 1.000000 1.000000
vt 0.833333 1.000000
vt 0.833333 0.933486
vt 0.666667 1.000000
vt 0.666667 0.933486
vt 0.500000 1.000000
vt 0.500000 0.933486
vt 0.333333 1.000000
vt 0.333333 0.933486
vt 0.166667 1.000000
vt 0.166667 0.933486
vt -0.000000 1.000000
vt -0.000000 0.933486
vt 0.833333 0.500000
vt 0.666667 0.500000
vt 0.750000 0.490000
vt 0.957846 0.370000
vt 0.957846 0.130000
vt 0.750000 0.010000
vt 0.542154 0.130000
vt 0.542154 0.370000
vt 0.333333 0.500000
vt 0.166667 0.500000
vt 1.000000 0.500000
vt 0.500000 0.500000
vt -0.000000 0.500000
vt 0.166667 0.620242
vt -0.000000 0.620242
vt 0.333333 0.620242
vt 0.500000 0.620242
vt 0.666667 0.620242
vt 0.833333 0.620242
vt 1.000000 0.620242
vt 0.166667 0.646097
vt -0.000000 0.646097
vt 0.333333 0.646097
vt 0.500000 0.646097
vt 0.666667 0.646097
vt 0.833333 0.646097
vt 1.000000 0.646097
vt 0.166667 0.913987
vt -0.000000 0.913987
vt 0.333333 0.913987
vt 0.500000 0.913987
vt 0.666667 0.913987
vt 0.833333 0.913987
vt 1.000000 0.913987
vt 0.250000 0.440468
vt 0.085050 0.345234
vt 0.414950 0.345234
vt 0.457846 0.370000
vt 0.250000 0.490000
vt 0.414950 0.154766
vt 0.457846 0.130000
vt 0.250000 0.059532
vt 0.250000 0.010000
vt 0.085050 0.154766
vt 0.042154 0.130000
vt 0.042154 0.370000
vt 0.375000 0.000000
vt 0.625000 0.000000
vt 0.625000 0.250000
vt 0.375000 0.250000
vt 0.625000 0.500000
vt 0.375000 0.500000
vt 0.625000 0.750000
vt 0.375000 0.750000
vt 0.625000 1.000000
vt 0.375000 1.000000
vt 0.125000 0.500000
vt 0.125000 0.750000
vt 0.875000 0.500000
vt 0.875000 0.750000
s 0
usemtl Material
f 31/1/1 2/2/1 4/3/1 32/4/1
f 32/4/2 4/3/2 6/5/2 33/6/2
f 33/6/3 6/5/3 8/7/3 34/8/3
f 34/8/4 8/7/4 10/9/4 35/10/4
f 6/5/5 4/3/5 49/3/5 51/5/5
f 35/10/6 10/9/6 12/11/6 36/12/6
f 36/12/7 12/11/7 2/13/7 31/14/7
f 11/24/7 24/28/7 19/29/7 1/27/7
f 9/23/6 23/30/6 24/28/6 11/24/6
f 7/26/4 22/31/4 23/30/4 9/23/4
f 5/16/3 21/32/3 22/31/3 7/26/3
f 3/15/2 20/33/2 21/32/2 5/16/2
f 1/25/1 19/34/1 20/33/1 3/15/1
f 25/41/1 42/48/1 37/47/1 26/40/1
f 26/40/2 37/47/2 38/46/2 27/39/2
f 27/39/3 38/46/3 39/45/3 28/38/3
f 28/38/4 39/45/4 40/44/4 29/37/4
f 29/37/6 40/44/6 41/42/6 30/35/6
f 30/35/7 41/42/7 42/43/7 25/36/7
f 44/49/3 48/50/3 60/50/3 56/49/3
f 12/11/15 10/9/15 53/9/15 54/11/15
f 4/3/16 2/2/16 50/2/16 49/3/16
f 8/7/17 6/5/17 51/5/17 52/7/17
f 2/13/18 12/11/18 54/11/18 50/13/18
f 10/9/19 8/7/19 52/7/19 53/9/19
f 44/49/20 43/51/20 49/52/20 50/53/20
f 43/51/20 45/54/20 51/55/20 49/52/20
f 45/54/20 46/56/20 52/57/20 51/55/20
f 46/56/20 47/58/20 53/59/20 52/57/20
f 47/58/20 48/50/20 54/60/20 53/59/20
f 48/50/20 44/49/20 50/53/20 54/60/20
f 55/51/20 56/49/20 60/50/20 59/58/20 58/56/20 57/54/20
f 47/58/1 46/56/1 58/56/1 59/58/1
f 45/54/6 43/51/6 55/51/6 57/54/6
f 48/50/2 47/58/2 59/58/2 60/50/2
f 46/56/7 45/54/7 57/54/7 58/56/7
f 43/51/4 44/49/4 56/49/4 55/51/4
f 61/61/21 62/62/21 64/63/21 63/64/21
f 63/64/22 64/63/22 68/65/22 67/66/22
f 67/66/23 68/65/23 66/67/23 65/68/23
f 65/68/24 66/67/24 62/69/24 61/70/24
f 68/65/4 64/73/4 62/74/4 66/67/4
f 69/61/25 70/62/25 72/63/25 71/64/25
f 71/64/26 72/63/26 76/65/26 75/66/26
f 75/66/27 76/65/27 74/67/27 73/68/27
f 73/68/28 74/67/28 70/69/28 69/70/28
f 76/65/7 72/73/7 70/74/7 74/67/7
f 77/61/29 78/62/29 80/63/29 79/64/29
f 79/64/24 80/63/24 84/65/24 83/66/24
f 83/66/30 84/65/30 82/67/30 81/68/30
f 81/68/22 82/67/22 78/69/22 77/70/22
f 84/65/1 80/73/1 78/74/1 82/67/1
f 85/61/31 86/62/31 88/63/31 87/64/31
f 87/64/28 88/63/28 92/65/28 91/66/28
f 91/66/32 92/65/32 90/67/32 89/68/32
f 89/68/26 90/67/26 86/69/26 85/70/26
f 92/65/3 88/73/3 86/74/3 90/67/3
f 93/61/33 94/62/33 96/63/33 95/64/33
f 95/64/28 96/63/28 100/65/28 99/66/28
f 99/66/32 100/65/32 98/67/32 97/68/32
f 97/68/26 98/67/26 94/69/26 93/70/26
f 100/65/3 96/73/3 94/74/3 98/67/3
f 101/61/34 102/62/34 104/63/34 103/64/34
f 103/64/24 104/63/24 108/65/24 107/66/24
f 107/66/30 108/65/30 106/67/30 105/68/30
f 105/68/22 106/67/22 102/69/22 101/70/22
f 108/65/1 104/73/1 102/74/1 106/67/1
f 109/61/35 110/62/35 112/63/35 111/64/35
f 111/64/26 112/63/26 116/65/26 115/66/26
f 115/66/27 116/65/27 114/67/27 113/68/27
f 113/68/28 114/67/28 110/69/28 109/70/28
f 116/65/7 112/73/7 110/74/7 114/67/7
f 117/61/36 118/62/36 120/63/36 119/64/36
f 119/64/22 120/63/22 124/65/22 123/66/22
f 123/66/23 124/65/23 122/67/23 121/68/23
f 121/68/24 122/67/24 118/69/24 117/70/24
f 124/65/4 120/73/4 118/74/4 122/67/4
usemtl Material.001
f 24/28/7 30/35/7 25/36/7 19/29/7
f 23/30/6 29/37/6 30/35/6 24/28/6
f 22/31/4 28/38/4 29/37/4 23/30/4
f 21/32/3 27/39/3 28/38/3 22/31/3
f 20/33/2 26/40/2 27/39/2 21/32/2
f 19/34/1 25/41/1 26/40/1 20/33/1
f 41/42/7 36/12/7 31/14/7 42/43/7
f 40/44/6 35/10/6 36/12/6 41/42/6
f 39/45/4 34/8/4 35/10/4 40/44/4
f 38/46/3 33/6/3 34/8/3 39/45/3
f 37/47/2 32/4/2 33/6/2 38/46/2
f 42/48/1 31/1/1 32/4/1 37/47/1
usemtl Material.002
f 3/15/8 5/16/8 15/16/8 14/15/8
f 13/17/9 14/18/9 15/19/9 16/20/9 17/21/9 18/22/9
f 9/23/10 11/24/10 18/24/10 17/23/10
f 1/25/11 3/15/11 14/15/11 13/25/11
f 5/16/12 7/26/12 16/26/12 15/16/12
f 11/24/13 1/27/13 13/27/13 18/24/13
f 7/26/14 9/23/14 17/23/14 16/26/14
f 63/71/1 67/66/1 65/68/1 61/72/1
f 71/71/3 75/66/3 73/68/3 69/72/3
f 79/71/4 83/66/4 81/68/4 77/72/4
f 87/71/7 91/66/7 89/68/7 85/72/7
f 95/71/7 99/66/7 97/68/7 93/72/7
f 103/71/4 107/66/4 105/68/4 101/72/4
f 111/71/3 115/66/3 113/68/3 109/72/3
f 119/71/1 123/66/1 121/68/1 117/72/1
